<svg id="visual" viewBox="0 0 900 100" width="900" height="100" xmlns="http://www.w3.org/2000/svg" xmlns:xlink="http://www.w3.org/1999/xlink" version="1.1"><rect x="0" y="0" width="900" height="100" fill="#ff006a"></rect><path d="M0 87L21.5 87C43 87 86 87 128.8 86.7C171.7 86.3 214.3 85.7 257.2 86.8C300 88 343 91 385.8 91.2C428.7 91.3 471.3 88.7 514.2 87.7C557 86.7 600 87.3 642.8 88.7C685.7 90 728.3 92 771.2 91.5C814 91 857 88 878.5 86.5L900 85L900 101L878.5 101C857 101 814 101 771.2 101C728.3 101 685.7 101 642.8 101C600 101 557 101 514.2 101C471.3 101 428.7 101 385.8 101C343 101 300 101 257.2 101C214.3 101 171.7 101 128.8 101C86 101 43 101 21.5 101L0 101Z" fill="#00ffc8" stroke-linecap="round" stroke-linejoin="miter"></path></svg>